PathFileType	4	(X/Y/Z)	s11c0201.trc
DataRate	CameraRate	NumFrames	NumMarkers	Units	OrigDataRate	OrigDataStartFrame	OrigNumFrames
200	200	7	48	mm	200	1000	2000
Frame#	Time	racr			lacr			c7			jug			rlel			rdr			llel			ldr			s2			lic			ric			lasi			rasi			rpsi			lpsi			rgt			lgt			rth1			rth2			rth3			rth4			rlfc			rmfc			rsh1			rsh2			rsh3			rsh4			rlmal			rcal			rtoe			rmt5			lth1			lth2			lth4			lth3			llfc			lmfc			llmal			lcal			lmt5			lsh1			lsh2			lsh3			lsh4			ltoe			SBIKE			LBIKE			RBIKE			
		X1	Y1	Z1	X2	Y2	Z2	X3	Y3	Z3	X4	Y4	Z4	X5	Y5	Z5	X6	Y6	Z6	X7	Y7	Z7	X8	Y8	Z8	X9	Y9	Z9	X10	Y10	Z10	X11	Y11	Z11	X12	Y12	Z12	X13	Y13	Z13	X14	Y14	Z14	X15	Y15	Z15	X16	Y16	Z16	X17	Y17	Z17	X18	Y18	Z18	X19	Y19	Z19	X20	Y20	Z20	X21	Y21	Z21	X22	Y22	Z22	X23	Y23	Z23	X24	Y24	Z24	X25	Y25	Z25	X26	Y26	Z26	X27	Y27	Z27	X28	Y28	Z28	X29	Y29	Z29	X30	Y30	Z30	X31	Y31	Z31	X32	Y32	Z32	X33	Y33	Z33	X34	Y34	Z34	X35	Y35	Z35	X36	Y36	Z36	X37	Y37	Z37	X38	Y38	Z38	X39	Y39	Z39	X40	Y40	Z40	X41	Y41	Z41	X42	Y42	Z42	X43	Y43	Z43	X44	Y44	Z44	X45	Y45	Z45	X46	Y46	Z46	X47	Y47	Z47	X48	Y48	Z48	
1000	5.0000	528.462815	1360.082610	-104.380187	521.894592	1337.109050	-414.007604	473.104971	1446.556535	-266.189801	467.111373	1259.774487	-258.553871	572.837830	1134.676221	54.777424	763.057551	971.639257	-67.850367	502.829400	1095.387378	-611.482188	758.553092	962.048054	-493.886977	-100.622173	1215.209064	-259.973455	121.224560	1225.989382	-467.024736	102.960388	1223.963692	-49.849807	140.484037	1160.917634	-414.812415	134.703258	1156.725910	-80.724140	-55.795305	1284.654456	-206.506587	-58.387157	1277.941630	-301.744409	54.566531	1058.994635	-50.780095	44.889923	1111.177768	-472.410542	153.046005	919.530207	-97.008326	206.282164	878.227557	-63.699865	234.136343	797.159395	-82.397109	235.383034	898.855591	-72.654807	291.793128	709.302918	-104.717015	273.745325	683.078424	-226.387434	263.368964	555.111729	-80.847049	271.536646	468.725239	-96.144267	237.390851	387.889025	-93.255945	292.907928	467.448385	-130.675873	208.982961	247.130164	-99.839273	146.609699	218.909134	-144.375463	433.991438	223.601984	-150.606474	371.057923	186.674951	-78.393798	180.969766	1055.150357	-481.581057	266.003688	1045.295800	-475.913461	280.013666	1077.148145	-462.519513	337.750814	991.192390	-476.574564	457.843773	921.453392	-451.087599	466.201529	911.520895	-319.959448	157.031832	624.953379	-417.078924	95.674718	635.428492	-378.213437	184.408501	449.291841	-447.831445	374.744471	834.519142	-465.027217	334.746513	760.515040	-447.003903	260.863989	712.757279	-439.351347	360.128868	741.813609	-424.734526	262.120690	386.909704	-384.881334	-215.056236	957.129149	-256.516241	-17.750203	80.900495	-461.079314	-17.817608	80.888554	-62.109105	
1001	5.0050	530.341349	1359.553510	-107.201375	519.863011	1339.496827	-418.284860	474.167993	1446.970273	-267.999972	467.210903	1260.245174	-261.547741	573.866141	1135.920836	54.663843	763.169526	971.696480	-69.116492	498.953403	1093.234267	-610.982033	757.519245	961.899687	-492.334734	-99.488103	1216.217898	-257.444622	120.079846	1228.589379	-466.325838	106.479937	1223.381736	-49.389871	139.772628	1163.955797	-413.440397	137.359215	1156.450285	-80.538710	-54.077634	1285.290425	-203.923606	-57.855908	1279.299767	-299.124782	54.488507	1057.642964	-49.901079	44.448534	1115.089097	-471.950982	149.616407	916.244739	-94.695566	202.580257	874.532605	-61.951548	228.937300	792.859406	-80.592811	232.004617	894.688074	-71.298710	285.003222	704.685081	-103.689653	263.893431	679.079757	-224.859331	254.971386	550.555889	-79.660012	262.983451	464.304036	-94.968541	228.453857	383.604691	-92.418043	284.049681	462.976450	-128.765415	200.885760	242.717202	-99.802355	138.444085	215.181598	-144.534105	425.765430	216.745099	-150.209409	362.389556	180.345442	-78.246661	181.299008	1060.274478	-481.223633	266.376837	1051.579878	-475.396905	279.954376	1083.655396	-461.921623	339.216891	998.555385	-476.514251	461.224780	930.538768	-451.547110	470.444440	921.198336	-319.627874	162.882623	631.616296	-416.801330	101.043730	640.622236	-378.116858	193.179228	456.183986	-447.905930	379.579787	844.485648	-464.968291	340.147974	770.030455	-447.194412	266.723570	721.536666	-439.360840	365.804491	751.390521	-425.096693	272.013005	395.475121	-385.322606	-215.013027	957.168206	-256.444836	-17.752902	80.916976	-461.099416	-17.748897	80.901617	-62.186049	
1002	5.0100	532.159799	1358.898162	-109.811980	517.700525	1341.721127	-422.423670	475.099014	1447.223899	-269.979306	467.209208	1260.571467	-264.500897	575.190557	1137.022474	54.795707	763.416729	971.669449	-70.390148	495.388511	1091.269302	-610.216182	756.560650	961.837402	-490.684785	-98.749167	1217.283645	-254.761644	118.663094	1231.009832	-465.000660	109.976244	1222.787405	-49.052954	139.041003	1166.696314	-412.116755	140.050478	1156.021144	-80.375543	-50.430142	1284.888995	-203.103883	-57.380284	1280.674856	-296.400539	54.383066	1056.319944	-48.850388	44.104101	1118.766205	-471.627762	146.635401	913.042581	-92.401559	199.125951	871.017237	-60.088524	223.945094	788.945730	-78.691045	229.004290	890.555122	-69.827293	278.729192	700.520447	-102.475035	256.962232	675.641930	-224.391883	246.894012	546.695685	-78.266949	254.656534	460.442658	-93.680222	219.657193	379.954552	-91.504355	276.166862	458.940648	-127.171991	192.619757	239.089772	-99.753409	130.003192	212.256803	-144.677177	417.205761	209.851760	-149.871570	353.493928	174.737516	-78.032679	181.665490	1065.069614	-480.831596	266.843081	1057.506704	-475.011839	279.939064	1089.777541	-461.461756	340.383190	1005.574429	-476.641543	464.333375	939.933713	-451.551025	474.241479	930.386197	-319.337710	168.725911	637.739475	-416.561568	106.391096	645.057466	-378.083820	202.034525	462.486361	-447.849281	383.974657	854.147254	-464.772141	345.351032	779.062923	-447.413853	272.237091	730.056808	-439.360626	371.213719	760.542840	-425.541476	282.121270	402.899761	-384.761376	-214.978001	957.225534	-256.385522	-17.742532	80.965169	-461.088647	-17.762647	80.905234	-62.176756	
1003	5.0150	533.888687	1358.178444	-112.397637	515.441662	1343.840257	-426.692078	475.946125	1447.329690	-272.070393	467.150503	1260.760032	-267.427573	576.760990	1137.961611	55.029605	763.800358	971.523257	-71.724539	491.921089	1089.302847	-608.801903	755.785799	961.871817	-489.010474	-97.872187	1218.036262	-252.266807	117.541395	1233.555107	-463.983625	113.393697	1221.551822	-48.903550	138.163266	1169.082812	-410.651380	142.874804	1155.265384	-80.965547	-49.368282	1285.535809	-200.015976	-57.021703	1281.870506	-293.492711	54.274028	1054.994659	-47.710774	43.693294	1122.222945	-471.313682	143.358308	910.386901	-89.460869	195.918422	867.917700	-58.080061	219.333894	785.557135	-76.663189	225.872570	887.068766	-68.304742	272.979126	696.889498	-101.189355	251.445689	672.789241	-223.561941	239.404913	543.720474	-76.897375	246.146508	457.103385	-92.981157	211.298758	376.979912	-90.802446	268.454228	455.573485	-125.779483	184.129851	236.181550	-99.617540	121.507604	210.402340	-144.786794	408.552179	204.658114	-149.533309	344.329362	169.642609	-77.995476	181.914112	1069.530638	-480.368283	267.280511	1063.168888	-474.734584	279.983456	1095.542525	-461.069770	341.477905	1012.267033	-476.848786	467.158697	948.558641	-451.937199	477.544557	939.062873	-319.325794	174.488310	642.930340	-416.285592	111.792396	648.697824	-378.090565	211.233416	468.232073	-447.917741	388.001265	863.146824	-464.536245	350.098782	787.516988	-447.771021	277.440172	737.908695	-439.482496	376.244516	769.046286	-426.116479	292.537455	410.234038	-384.710339	-214.985063	957.253618	-256.310305	-17.739786	80.986971	-461.084864	-17.749259	80.923593	-62.168991	
1004	5.0200	535.532739	1356.863105	-114.958962	513.293123	1346.105676	-430.581480	476.634788	1447.429325	-274.286408	466.950701	1260.939450	-270.934785	578.524121	1138.894202	55.459067	764.321465	971.291953	-73.122400	489.041417	1087.934363	-607.475465	755.111501	961.662110	-487.130127	-97.061547	1218.376173	-250.059183	116.223301	1235.949466	-462.577010	116.794472	1220.139264	-48.855059	137.622326	1171.510930	-409.990060	145.529606	1154.575259	-81.458092	-48.440316	1286.265185	-196.879176	-56.727458	1283.076752	-290.592133	54.362031	1053.696891	-46.409733	43.298390	1125.559597	-471.136884	141.015444	909.027516	-87.203724	192.960666	865.307065	-55.959334	214.995952	782.573290	-74.499750	223.292289	884.772608	-66.176684	268.068857	693.738087	-99.744299	246.616283	671.155475	-222.935227	232.553104	541.178590	-75.534602	238.734735	454.701937	-91.975325	203.309146	374.877255	-90.254595	261.518044	453.204404	-124.367038	175.402956	234.040761	-99.571033	112.889507	209.330074	-144.741276	399.702380	199.516989	-149.185790	335.022782	165.085221	-77.881342	182.684064	1074.460934	-480.660606	267.747434	1068.471967	-474.631488	280.052599	1101.005792	-460.702179	342.563300	1018.581642	-477.148664	465.458213	956.785471	-454.445669	480.145429	946.967741	-319.592653	180.328251	647.550405	-416.173463	117.250025	651.540978	-378.122708	220.671413	473.404525	-448.100941	391.547208	871.345976	-464.373782	354.402628	795.233750	-448.073187	282.257025	744.831070	-439.679656	380.859900	776.890223	-426.753385	303.231907	417.289174	-384.694710	-214.974766	957.296973	-256.267873	-17.744019	81.037469	-461.060208	-17.749032	80.944728	-62.164016	
1005	5.0250	537.155051	1355.681644	-117.384273	510.952053	1347.927411	-434.640421	477.122422	1447.312032	-276.395925	466.764500	1260.904920	-274.028615	580.484858	1139.751975	56.037914	765.050979	971.042648	-74.536884	486.590720	1086.918982	-606.053859	754.573468	961.921570	-485.726619	-96.143991	1218.328510	-247.742851	114.877422	1238.303296	-461.170750	120.010501	1218.257132	-48.979924	137.140794	1174.003900	-409.610670	148.209416	1153.727736	-81.892065	-47.479584	1286.873076	-193.932099	-56.631217	1284.254978	-287.528774	54.482090	1052.494739	-44.989156	42.920186	1128.450560	-470.926638	138.388693	907.221389	-84.279806	190.239600	863.120685	-53.783837	210.967933	780.083740	-72.290505	220.708901	882.174923	-64.380747	263.740491	691.104408	-98.125639	242.674933	670.389903	-222.044576	226.564058	539.388904	-74.317093	231.989871	452.884700	-90.929370	195.942047	373.521156	-89.686244	254.983334	451.206511	-123.145462	166.715094	232.703168	-99.413684	104.266800	209.164618	-144.688112	390.816330	194.478728	-149.042148	325.567646	161.132802	-77.697919	183.055372	1078.497654	-480.339292	268.199876	1073.456562	-474.493002	280.176258	1106.045284	-460.355266	343.556785	1024.398036	-477.571481	467.431887	964.485742	-455.079103	483.132268	954.968170	-319.427992	186.223510	651.171506	-416.098599	122.647761	653.539001	-378.129791	230.292559	477.855042	-448.132454	394.508798	878.617743	-464.180032	358.302640	802.022046	-448.283933	286.744936	750.789100	-439.946464	385.126985	783.626825	-427.382355	313.878974	423.660243	-384.966421	-214.965288	957.327956	-256.256399	-17.753243	81.068336	-461.046945	-17.791241	80.957285	-62.093578	
1006	5.0300	538.758777	1354.414907	-119.611887	508.729926	1349.632470	-438.364766	477.530449	1447.120112	-278.372090	466.656529	1260.792281	-277.008476	582.614853	1140.395290	56.513031	765.841285	970.848775	-76.039261	484.433895	1086.100253	-604.560189	754.208457	962.197884	-484.740255	-95.766289	1218.938081	-245.278277	113.640436	1240.397602	-459.655850	123.266397	1216.594139	-49.426236	136.329837	1175.698606	-408.333549	151.007051	1152.570352	-82.996374	-46.590318	1287.337757	-191.100853	-56.808902	1285.462637	-284.279196	54.613794	1051.474891	-43.516067	42.723601	1131.198950	-470.714691	136.238731	906.126659	-81.674053	187.923849	861.532117	-51.762429	207.408817	778.137187	-70.054312	218.469277	880.183370	-62.569086	259.891231	689.081005	-96.347228	240.054211	669.889002	-220.600194	221.349629	538.164751	-73.196539	225.892117	451.613584	-90.026481	188.316200	372.252576	-89.137865	249.903983	449.639807	-121.794511	158.302053	232.337009	-99.102052	95.588230	209.967852	-144.670957	381.893615	189.902779	-148.852755	315.994765	157.693984	-77.549152	183.432856	1082.319240	-479.959237	268.666728	1078.109325	-474.294932	280.377024	1110.705491	-459.902720	344.413577	1029.813255	-478.100879	468.818933	971.610735	-455.791958	484.956403	961.695472	-319.772331	192.104264	653.989574	-416.203736	128.563396	654.963983	-378.496201	239.984165	481.729504	-448.557409	396.915846	884.904967	-464.072788	361.820516	807.629539	-448.626995	291.076800	755.339983	-440.152848	388.992991	789.587653	-427.907061	324.841797	429.428362	-384.987208	-214.954829	957.374771	-256.256228	-17.739468	81.088242	-461.051068	-17.724338	80.962160	-62.166658	
